<svg xmlns="http://www.w3.org/2000/svg" xmlns:xlink="http://www.w3.org/1999/xlink" version="1.0" x="0" y="0" width="2400" height="2083.708490109911" viewBox="139.4 98.43271484375 61.2 53.13456649780274" preserveAspectRatio="xMidYMid meet" color-interpolation-filters="sRGB"><g><defs><linearGradient id="92" x1="0%" y1="0%" x2="100%" y2="0%"><stop offset="0%" stop-color="#fa71cd"></stop> <stop offset="100%" stop-color="#9b59b6"></stop></linearGradient><linearGradient id="93" x1="0%" y1="0%" x2="100%" y2="0%"><stop offset="0%" stop-color="#f9d423"></stop> <stop offset="100%" stop-color="#f83600"></stop></linearGradient><linearGradient id="94" x1="0%" y1="0%" x2="100%" y2="0%"><stop offset="0%" stop-color="#0064d2"></stop> <stop offset="100%" stop-color="#1cb0f6"></stop></linearGradient><linearGradient id="95" x1="0%" y1="0%" x2="100%" y2="0%"><stop offset="0%" stop-color="#f00978"></stop> <stop offset="100%" stop-color="#3f51b1"></stop></linearGradient><linearGradient id="96" x1="0%" y1="0%" x2="100%" y2="0%"><stop offset="0%" stop-color="#7873f5"></stop> <stop offset="100%" stop-color="#ec77ab"></stop></linearGradient><linearGradient id="97" x1="0%" y1="0%" x2="100%" y2="0%"><stop offset="0%" stop-color="#f9d423"></stop> <stop offset="100%" stop-color="#e14fad"></stop></linearGradient><linearGradient id="98" x1="0%" y1="0%" x2="100%" y2="0%"><stop offset="0%" stop-color="#009efd"></stop> <stop offset="100%" stop-color="#2af598"></stop></linearGradient><linearGradient id="99" x1="0%" y1="0%" x2="100%" y2="0%"><stop offset="0%" stop-color="#ffcc00"></stop> <stop offset="100%" stop-color="#00b140"></stop></linearGradient><linearGradient id="100" x1="0%" y1="0%" x2="100%" y2="0%"><stop offset="0%" stop-color="#d51007"></stop> <stop offset="100%" stop-color="#ff8177"></stop></linearGradient><linearGradient id="102" x1="0%" y1="0%" x2="100%" y2="0%"><stop offset="0%" stop-color="#a2b6df"></stop> <stop offset="100%" stop-color="#0c3483"></stop></linearGradient><linearGradient id="103" x1="0%" y1="0%" x2="100%" y2="0%"><stop offset="0%" stop-color="#7ac5d8"></stop> <stop offset="100%" stop-color="#eea2a2"></stop></linearGradient><linearGradient id="104" x1="0%" y1="0%" x2="100%" y2="0%"><stop offset="0%" stop-color="#00ecbc"></stop> <stop offset="100%" stop-color="#007adf"></stop></linearGradient><linearGradient id="105" x1="0%" y1="0%" x2="100%" y2="0%"><stop offset="0%" stop-color="#b88746"></stop> <stop offset="100%" stop-color="#fdf5a6"></stop></linearGradient></defs><g class="imagesvg isNoFont" transform="translate(140,99.03271675109863)"><g><rect fill="#f757af" fill-opacity="0" stroke-width="2" x="0" y="0" width="60" height="51.93456245131135" class="image-rect"></rect> <svg x="0" y="0" width="60" height="51.93456245131135" filtersec="colorsb116385727" class="image-svg-svg primary" style="overflow: visible;"><svg xmlns="http://www.w3.org/2000/svg" xmlns:xlink="http://www.w3.org/1999/xlink" viewBox="-0.0048376466147601604 0.003910142462700605 116.29138946533203 100.65929412841797"><defs><linearGradient id="e2bee52b-d1c5-4246-b86d-dabab915ef99" x1="35.58" y1="86.59" x2="97.58" y2="24.59" gradientTransform="matrix(1, 0, 0, -1, 0, 101.99)" gradientUnits="userSpaceOnUse"><stop offset="0" stop-color="#ffb2c2"></stop><stop offset="1" stop-color="#f85e8a"></stop></linearGradient></defs><g id="bdb629a9-c5a0-4b5e-83f7-409ce17022fc"><g id="f1d53a6a-9d11-4667-8b9e-c2b3e6492a78"><path d="M103.88,43.86C94.15,34,88,22.79,82.64,23.15c-4.06.26-7.34,8.85-11.77,8.67s-6.81-9.65-12.66-10S36.67,43.31,34.4,49.35c-3.18,8.49,5.4,14.78,12.22,9.47s11-11.51,13.63-11.51,5,9.91,9.82,9.91S79.63,48.73,82.2,48c5-1.4,14.08,10.44,15.67,19.91C100,80.53,85.13,94.32,55.12,93.18,31.21,92.27,7.29,67.71,18.19,40.84S52.82-1.63,80.44.14s36.51,27.31,34.1,38C112.22,48.54,107.06,47.09,103.88,43.86Z" fill="url(#e2bee52b-d1c5-4246-b86d-dabab915ef99)"></path><path d="M91.27,53.87c-3.08-3.95-6.59-6.55-9.1-5.85s-7.35,9.2-12.13,9.2-7.16-9.91-9.82-9.91-6.82,6.2-13.63,11.51-15.4-1-12.22-9.47c2.27-6,18-27.88,23.81-27.53s8.24,9.83,12.66,10,7.71-8.41,11.77-8.67c2.07-.14,4.23,1.41,6.66,3.92C78.51,13.89,57.79,9.34,39.86,12,24.53,14.3,11.24,21.87,8,33.84S8.6,54.9,16.27,61.55C41.55,83.49,107.64,78.13,91.27,53.87Z" fill="#ff0098" opacity="0.6"></path><path d="M82.2,48c-2.57.71-7.35,9.2-12.13,9.2s-7.16-9.91-9.82-9.91-6.82,6.2-13.63,11.51-15.4-1-12.22-9.47c.86-2.28,3.64-6.82,7.07-11.57C28.38,55,26.09,71.47,30,83.26l1.35,1.08L30,83.26c3.72,11.25,13.08,18.2,24.07,17.33,5.33-.43,10.7-3.74,15.78-8.15h0c13.94-12.12,25.64-32.56,28-24.51C96.28,58.46,87.23,46.62,82.2,48ZM55.12,93.18a42.71,42.71,0,0,1-23.71-8.81,42.64,42.64,0,0,0,23.72,8.81,78.46,78.46,0,0,0,14.29-.69A78.57,78.57,0,0,1,55.12,93.18Z" fill="#6d59d1" opacity="0.5" style="isolation:isolate"></path><g opacity="0.5"><path d="M109.78,9.37a10.68,10.68,0,0,0-8.63-1.75,35.88,35.88,0,0,1,10.24,12.75C113.21,16,113.59,12.13,109.78,9.37Z" fill="#ff8d27"></path><path d="M101.15,7.65c-13.42,2.54-29,24.4-35.21,20.37,1.56,2,3.06,3.73,4.93,3.8,4.43.18,7.71-8.41,11.77-8.67C88,22.79,94.15,34,103.88,43.86c-3.8-6.31,4.22-15.61,7.51-23.49A35.87,35.87,0,0,0,101.15,7.65Z" fill="#ff8d27"></path></g><path d="M101.68,55c-2.78,1.81,6.1,21.57,12.3,17.56S104.45,53.16,101.68,55ZM14.93,69.64c2,1.64-1.86,9.93-6.4,6.3S12.9,68,14.93,69.64Z" fill="#f757af"></path><path d="M108.79,51.91c-3.46,1.37,4.56,7.83,7,4.85S111,51,108.79,51.91ZM70.66,95.56c-.83,3.57,4.14,3.64,3.11.12C73.19,93.67,71.13,93.58,70.66,95.56Z" fill="#ab8eeb"></path><path d="M12.61,65.21c-1.66,2.29-6.29,5.18-10,4.25-3.1-.79-5.6-9.18,5.75-7.76C14.83,62.52,13.4,64.11,12.61,65.21Z" fill="#ffbd88"></path></g></g></svg></svg> </g></g><defs v-gra="od"></defs></g></svg>