
<svg
  version="1.0"
  xmlns="http://www.w3.org/2000/svg"
  xmlns:xlink="http://www.w3.org/1999/xlink"
  width="2400"
  height="1800"
>
  
  <rect
    x="0"
    y="0"
    width="100%"
    height="100%"
    fill="#fff"
    fill-opacity="1"
  ></rect>
  <svg
    version="1.0"
    xmlns="http://www.w3.org/2000/svg"
    xmlns:xlink="http://www.w3.org/1999/xlink"
    x="0"
    y="0"
    width="2400"
    height="1800"
    viewBox="0 0 340.000000 250.000000"
    preserveAspectRatio="xMidYMid meet"
    color-interpolation-filters="sRGB"
  >
    <defs><linearGradient id="92" x1="0%" y1="0%" x2="100%" y2="0%"><stop offset="0%" stop-color="#fa71cd"/> <stop offset="100%" stop-color="#9b59b6"/></linearGradient><linearGradient id="93" x1="0%" y1="0%" x2="100%" y2="0%"><stop offset="0%" stop-color="#f9d423"/> <stop offset="100%" stop-color="#f83600"/></linearGradient><linearGradient id="94" x1="0%" y1="0%" x2="100%" y2="0%"><stop offset="0%" stop-color="#0064d2"/> <stop offset="100%" stop-color="#1cb0f6"/></linearGradient><linearGradient id="95" x1="0%" y1="0%" x2="100%" y2="0%"><stop offset="0%" stop-color="#f00978"/> <stop offset="100%" stop-color="#3f51b1"/></linearGradient><linearGradient id="96" x1="0%" y1="0%" x2="100%" y2="0%"><stop offset="0%" stop-color="#7873f5"/> <stop offset="100%" stop-color="#ec77ab"/></linearGradient><linearGradient id="97" x1="0%" y1="0%" x2="100%" y2="0%"><stop offset="0%" stop-color="#f9d423"/> <stop offset="100%" stop-color="#e14fad"/></linearGradient><linearGradient id="98" x1="0%" y1="0%" x2="100%" y2="0%"><stop offset="0%" stop-color="#009efd"/> <stop offset="100%" stop-color="#2af598"/></linearGradient><linearGradient id="99" x1="0%" y1="0%" x2="100%" y2="0%"><stop offset="0%" stop-color="#ffcc00"/> <stop offset="100%" stop-color="#00b140"/></linearGradient><linearGradient id="100" x1="0%" y1="0%" x2="100%" y2="0%"><stop offset="0%" stop-color="#d51007"/> <stop offset="100%" stop-color="#ff8177"/></linearGradient><linearGradient id="102" x1="0%" y1="0%" x2="100%" y2="0%"><stop offset="0%" stop-color="#a2b6df"/> <stop offset="100%" stop-color="#0c3483"/></linearGradient><linearGradient id="103" x1="0%" y1="0%" x2="100%" y2="0%"><stop offset="0%" stop-color="#7ac5d8"/> <stop offset="100%" stop-color="#eea2a2"/></linearGradient><linearGradient id="104" x1="0%" y1="0%" x2="100%" y2="0%"><stop offset="0%" stop-color="#00ecbc"/> <stop offset="100%" stop-color="#007adf"/></linearGradient><linearGradient id="105" x1="0%" y1="0%" x2="100%" y2="0%"><stop offset="0%" stop-color="#b88746"/> <stop offset="100%" stop-color="#fdf5a6"/></linearGradient></defs> <g fill="#444" class="icon-text-wrapper icon-svg-group iconsvg" transform="translate(56.26499938964844,82.74802017211914)"><g class="iconsvg-imagesvg" transform="translate(0,16.284696578979492)"><g><rect fill="#444" fill-opacity="0" stroke-width="2" x="0" y="0" width="60" height="51.93456245131135" class="image-rect"/> <svg filter="url(#colors4532445417)" x="0" y="0" width="60" height="51.93456245131135" filtersec="colorsf3953014874" class="image-svg-svg primary" style="overflow: visible;"><svg xmlns="http://www.w3.org/2000/svg" xmlns:xlink="http://www.w3.org/1999/xlink" viewBox="-0.0048376466147601604 0.003910142462700605 116.29138946533203 100.65929412841797"><defs><linearGradient id="e2bee52b-d1c5-4246-b86d-dabab915ef99" x1="35.58" y1="86.59" x2="97.58" y2="24.59" gradientTransform="matrix(1, 0, 0, -1, 0, 101.99)" gradientUnits="userSpaceOnUse"><stop offset="0" stop-color="#ffb2c2"/><stop offset="1" stop-color="#f85e8a"/></linearGradient></defs><g id="bdb629a9-c5a0-4b5e-83f7-409ce17022fc"><g id="f1d53a6a-9d11-4667-8b9e-c2b3e6492a78"><path d="M103.88,43.86C94.15,34,88,22.79,82.64,23.15c-4.06.26-7.34,8.85-11.77,8.67s-6.81-9.65-12.66-10S36.67,43.31,34.4,49.35c-3.18,8.49,5.4,14.78,12.22,9.47s11-11.51,13.63-11.51,5,9.91,9.82,9.91S79.63,48.73,82.2,48c5-1.4,14.08,10.44,15.67,19.91C100,80.53,85.13,94.32,55.12,93.18,31.21,92.27,7.29,67.71,18.19,40.84S52.82-1.63,80.44.14s36.51,27.31,34.1,38C112.22,48.54,107.06,47.09,103.88,43.86Z" fill="url(#e2bee52b-d1c5-4246-b86d-dabab915ef99)"/><path d="M91.27,53.87c-3.08-3.95-6.59-6.55-9.1-5.85s-7.35,9.2-12.13,9.2-7.16-9.91-9.82-9.91-6.82,6.2-13.63,11.51-15.4-1-12.22-9.47c2.27-6,18-27.88,23.81-27.53s8.24,9.83,12.66,10,7.71-8.41,11.77-8.67c2.07-.14,4.23,1.41,6.66,3.92C78.51,13.89,57.79,9.34,39.86,12,24.53,14.3,11.24,21.87,8,33.84S8.6,54.9,16.27,61.55C41.55,83.49,107.64,78.13,91.27,53.87Z" fill="#ff0098" opacity="0.6"/><path d="M82.2,48c-2.57.71-7.35,9.2-12.13,9.2s-7.16-9.91-9.82-9.91-6.82,6.2-13.63,11.51-15.4-1-12.22-9.47c.86-2.28,3.64-6.82,7.07-11.57C28.38,55,26.09,71.47,30,83.26l1.35,1.08L30,83.26c3.72,11.25,13.08,18.2,24.07,17.33,5.33-.43,10.7-3.74,15.78-8.15h0c13.94-12.12,25.64-32.56,28-24.51C96.28,58.46,87.23,46.62,82.2,48ZM55.12,93.18a42.71,42.71,0,0,1-23.71-8.81,42.64,42.64,0,0,0,23.72,8.81,78.46,78.46,0,0,0,14.29-.69A78.57,78.57,0,0,1,55.12,93.18Z" fill="#6d59d1" opacity="0.5" style="isolation:isolate"/><g opacity="0.5"><path d="M109.78,9.37a10.68,10.68,0,0,0-8.63-1.75,35.88,35.88,0,0,1,10.24,12.75C113.21,16,113.59,12.13,109.78,9.37Z" fill="#ff8d27"/><path d="M101.15,7.65c-13.42,2.54-29,24.4-35.21,20.37,1.56,2,3.06,3.73,4.93,3.8,4.43.18,7.71-8.41,11.77-8.67C88,22.79,94.15,34,103.88,43.86c-3.8-6.31,4.22-15.61,7.51-23.49A35.87,35.87,0,0,0,101.15,7.65Z" fill="#ff8d27"/></g><path d="M101.68,55c-2.78,1.81,6.1,21.57,12.3,17.56S104.45,53.16,101.68,55ZM14.93,69.64c2,1.64-1.86,9.93-6.4,6.3S12.9,68,14.93,69.64Z" fill="#f757af"/><path d="M108.79,51.91c-3.46,1.37,4.56,7.83,7,4.85S111,51,108.79,51.91ZM70.66,95.56c-.83,3.57,4.14,3.64,3.11.12C73.19,93.67,71.13,93.58,70.66,95.56Z" fill="#ab8eeb"/><path d="M12.61,65.21c-1.66,2.29-6.29,5.18-10,4.25-3.1-.79-5.6-9.18,5.75-7.76C14.83,62.52,13.4,64.11,12.61,65.21Z" fill="#ffbd88"/></g></g></svg></svg> <defs><filter id="colors4532445417"><feColorMatrix type="matrix" values="0 0 0 0 0.265625  0 0 0 0 0.265625  0 0 0 0 0.265625  0 0 0 1 0" class="icon-feColorMatrix "/></filter> <filter id="colorsf3953014874"><feColorMatrix type="matrix" values="0 0 0 0 0.99609375  0 0 0 0 0.99609375  0 0 0 0 0.99609375  0 0 0 1 0" class="icon-fecolormatrix"/></filter> <filter id="colorsb9014827771"><feColorMatrix type="matrix" values="0 0 0 0 0  0 0 0 0 0  0 0 0 0 0  0 0 0 1 0" class="icon-fecolormatrix"/></filter></defs></g></g> <g transform="translate(67,0)"><g fill-rule="" class="tp-name iconsvg-namesvg"><g transform="scale(1)"><g><path d="M22.41-44.75L22.41-44.75Q24.31-44.75 26.6-41.45L26.6-41.45Q26.91-40.82 26.91-40.56L26.91-40.56Q26.91-39.36 26.15-36.82L26.15-36.82 26.15-36.63 27.04-36.63Q28.75-36.63 30.91-33.2L30.91-33.2 31.23-30.02 31.1-30.02 31.23-29.71 30.66-25.2Q30.66-25.07 30.79-25.07L30.79-25.07Q30.21-20.44 30.21-19.42L30.21-19.42 30.34-19.17Q30.09-18.6 30.09-18.03L30.09-18.03 30.09-17.39Q30.09-17.08 30.21-16.82L30.21-16.82Q30.09-15.55 29.9-15.55L29.9-15.55 30.09-15.23Q29.9-13.46 29.9-13.08L29.9-13.08Q30.09-12.19 30.34-12.19L30.34-12.19Q33.45-16.31 34.72-18.28L34.72-18.28Q44.81-32.63 45.13-34.47L45.13-34.47Q45.13-35.74 46.53-39.99L46.53-39.99Q47.54-41.96 48.43-42.59L48.43-42.59 48.56-42.59Q50.21-42.59 52.05-39.55L52.05-39.55 52.18-38.97Q51.8-38.97 51.35-33.33L51.35-33.33 51.48-32.63Q51.48-31.99 51.16-31.17L51.16-31.17Q51.16-31.04 51.35-31.04L51.35-31.04 50.91-27.1Q51.04-26.85 51.04-26.66L51.04-26.66Q50.72-25.58 50.72-25.2L50.72-25.2Q50.72-24.88 50.91-24.63L50.91-24.63Q50.34-19.55 49.77-8.19L49.77-8.19 49.89-7.87 49.77-6.98 49.77-6.73Q49.77-5.97 49.89-4.57L49.89-4.57 49.77-4.57 49.89-4.25 49.89-4Q49.89 1.97 52.05 8.32L52.05 8.32 51.92 8.32Q51.04 8.32 48.31 0.51L48.31 0.51Q45.13-9.78 45.13-14.79L45.13-14.79Q44.69-16.57 44.37-23.23L44.37-23.23 44.56-23.23 44.37-23.49 44.37-23.8Q44.37-24.31 44.56-25.07L44.56-25.07Q44.37-25.39 44.37-25.52L44.37-25.52Q44.56-25.77 44.56-26.09L44.56-26.09 44.24-26.09Q43.35-25.33 41.64-22.22L41.64-22.22Q40.56-20.88 38.02-15.81L38.02-15.81Q35.8-12.19 31.8-4.82L31.8-4.82Q30.47-3.11 29.9-3.11L29.9-3.11Q24.88-5.33 24.88-8.63L24.88-8.63Q24.88-11.11 26.6-31.04L26.6-31.04 26.34-31.04Q21.26-25.58 21.14-24.5L21.14-24.5 18.09-19.17Q11.93-8.51 10.85-5.84L10.85-5.84Q10.28-5.65 9.71-3.81L9.71-3.81Q8.89-2.67 7.93-0.19L7.93-0.19 7.68-0.06 7.11-0.06Q5.21-0.06 1.71-4.57L1.71-4.57Q1.71-4.63 1.59-5.4L1.59-5.4Q5.27-13.01 10.73-21.2L10.73-21.2Q10.73-21.58 13.01-25.07L13.01-25.07Q14.09-27.42 17.08-32.44L17.08-32.44 20.69-40.24Q21.26-41.39 22.28-44.75L22.28-44.75 22.41-44.75ZM84.11-44.12L84.11-44.12Q85.44-43.86 88.42-40.31L88.42-40.31Q89.38-38.72 89.38-37.77L89.38-37.77Q88.93-37.45 85.57-36.37L85.57-36.37Q85.44-36.37 85.44-36.5L85.44-36.5Q79.85-35.29 75.92-32.63L75.92-32.63 71.47-30.79 71.67-28.37Q71.47-26.34 70.9-23.61L70.9-23.61 70.97-23.61 81.69-25.14 82.39-25.01 83.41-25.14 83.41-25.01 83.6-25.14 86.84-25.14Q89.95-25.14 90.2-24.44L90.2-24.44 90.2-24.31Q90.2-23.74 84.68-21.65L84.68-21.65Q81.82-20.63 78.77-19.93L78.77-19.93Q78.58-19.8 68.81-16.69L68.81-16.69Q66.84-10.09 66.84-8.32L66.84-8.32 67.54-7.87Q68.05-8.13 69.06-8.13L69.06-8.13 69.13-8.13Q69.25-8.13 69.25-8L69.25-8 69.51-8.13 70.65-8.13Q70.9-8.13 71.09-8.32L71.09-8.32Q71.22-8.32 71.22-8.13L71.22-8.13 71.79-8.32 73.19-8.32 73.95-8.44 73.95-8.32Q74.2-8.44 74.33-8.44L74.33-8.44Q76.62-8.44 84.8-9.71L84.8-9.71 84.8-9.58Q87.47-9.97 89.12-10.66L89.12-10.66Q89.44-10.66 90.07-10.79L90.07-10.79Q91.03-10.79 92.93-7.87L92.93-7.87 92.93-7.43Q92.93-6.67 89.95-6.16L89.95-6.16Q88.49-5.33 82.27-4.19L82.27-4.19Q81.57-4 81.19-3.81L81.19-3.81 80.74-3.94Q74.52-2.54 73.32-2.09L73.32-2.09Q73.19-2.09 73.19-2.22L73.19-2.22Q72.05-1.84 63.29 0L63.29 0Q60.43 0 57-5.65L57-5.65 56.88-6.35 56.88-6.47Q56.88-7.05 59.48-7.43L59.48-7.43Q60.94-7.43 61.32-10.79L61.32-10.79Q61.32-11.49 62.14-14.92L62.14-14.92 61.32-14.73Q58.72-14.73 56.3-18.98L56.3-18.98 56.18-19.68Q56.18-20.06 63.1-21.65L63.1-21.65Q63.1-21.9 64.43-22.22L64.43-22.22 65.83-26.53Q66.33-27.61 67.22-30.34L67.22-30.34Q68.05-32.18 68.24-32.18L68.24-32.18 68.24-32.31Q63.86-35.1 63.16-38.09L63.16-38.09 63.16-38.34Q63.16-38.66 66.84-39.48L66.84-39.48Q72.62-41.7 73.32-41.7L73.32-41.7Q81.95-44.12 84.11-44.12L84.11-44.12ZM73.95-34.15L73.95-34.15Q73.89-34.15 73.89-34.28L73.89-34.28Q72.11-33.52 71.22-33.01L71.22-33.01 70.97-33.13Q70.46-32.75 69.82-32.75L69.82-32.75 69.82-32.63Q70.65-32.18 70.9-32.18L70.9-32.18 71.09-32.18Q75.6-33.13 78.46-35.42L78.46-35.42 78.46-35.55 78.33-35.55Q75.54-34.85 73.95-34.15L73.95-34.15ZM120.16-44.31L120.16-44.31Q124.41-42.72 126.13-39.17L126.13-39.17 126.13-38.85Q126-38.47 125.3-38.47L125.3-38.47 123.84-38.47Q123.21-38.47 122.7-38.15L122.7-38.15Q122.57-38.15 122.57-38.28L122.57-38.28Q114.13-36.75 113.69-36.18L113.69-36.18Q113.69-33.58 111.97-25.58L111.97-25.58 110.96-20.69 111.15-20.44Q110.58-18.66 106.7-1.46L106.7-1.46Q106.32-0.19 105.82 0L105.82 0Q104.99-0.83 104.99-2.16L104.99-2.16Q104.99-2.41 105.12-2.41L105.12-2.41Q104.99-3.62 104.99-4.32L104.99-4.32Q104.99-9.14 105.24-15.42L105.24-15.42 105.43-15.42 105.24-15.74Q105.82-21.33 106.26-23.99L106.26-23.99 106.13-24.31 108.29-34.85 108.29-35.42 108.1-35.74 99.53-33.58Q98.64-33.33 98.26-33.33L98.26-33.33Q95.98-33.33 92.68-37.45L92.68-37.45 92.55-38.28Q92.55-38.66 93.82-38.85L93.82-38.85Q94.58-38.72 94.71-38.72L94.71-38.72Q104.36-41.58 117.43-43.86L117.43-43.86 117.43-43.74 118.13-43.99Q118.38-43.86 118.7-43.86L118.7-43.86Q119.53-44.31 120.16-44.31L120.16-44.31ZM143.01-48.12L143.01-48.12Q145.23-48.12 148.34-43.93L148.34-43.93Q148.34-43.74 148.6-43.29L148.6-43.29 148.34-39.86 148.47-39.61Q148.34-39.1 148.34-38.72L148.34-38.72 148.47-38.47Q148.22-37.9 148.22-36.82L148.22-36.82 148.22-34.15Q148.22-32.5 148.09-29.83L148.09-29.83Q148.22-29.64 148.22-29.33L148.22-29.33Q148.09-29.14 148.09-28.56L148.09-28.56 148.22-28.31Q148.09-28.12 148.09-27.8L148.09-27.8 148.22-27.04Q148.22-26.91 148.09-26.66L148.09-26.66Q148.22-25.39 148.22-24.63L148.22-24.63 148.22-24.25 148.47-23.87Q151.46-23.99 152.92-23.99L152.92-23.99 154.69-23.99Q155.01-23.99 155.2-24.12L155.2-24.12 155.45-23.99Q155.58-23.99 155.58-24.12L155.58-24.12 156.22-23.99 159.64-23.99Q159.77-23.99 159.77-23.87L159.77-23.87 160.02-23.99 161.04-23.99Q161.99-23.99 162.06-23.61L162.06-23.61Q157.17-22.09 155.2-21.71L155.2-21.71Q150.44-20.44 148.6-19.8L148.6-19.8Q148.47-19.55 148.47-19.42L148.47-19.42Q148.85-13.84 150.38-6.98L150.38-6.98Q152.28 1.4 154.18 4.06L154.18 4.06Q155.33 6.35 155.33 6.86L155.33 6.86Q155.33 7.05 154.95 7.24L154.95 7.24 154.82 7.24Q151.96 6.28 150.38 3.3L150.38 3.3Q148.98 0.19 147.2-4.82L147.2-4.82Q143.58-8.38 140.09-9.52L140.09-9.52Q136.79-10.92 130.19-11.55L130.19-11.55Q129.56-11.55 129.05-10.28L129.05-10.28Q127.84-7.62 125.24-2.54L125.24-2.54Q125.05-1.27 122.45 2.29L122.45 2.29Q122.26 2.41 121.94 2.41L121.94 2.41Q120.48 2.41 118.64 0L118.64 0Q118.38-0.44 118.38-0.63L118.38-0.63Q119.72-3.94 121.68-7.49L121.68-7.49Q121.68-7.68 123.46-11.55L123.46-11.55Q123.46-11.68 123.33-11.68L123.33-11.68Q122.83-11.68 122.83-11.81L122.83-11.81 122.57-11.68Q119.84-11.68 117.75-11.17L117.75-11.17Q115.34-11.17 113.31-14.47L113.31-14.47 113.31-14.6Q113.31-15.17 117.11-16.63L117.11-16.63Q117.62-17.08 120.54-17.9L120.54-17.9Q123.59-19.04 127.65-20.31L127.65-20.31Q130.76-26.53 134.76-33.64L134.76-33.64Q134.76-33.9 136.16-35.93L136.16-35.93Q138.25-39.67 141.24-44.43L141.24-44.43Q141.87-45.51 142.25-47.48L142.25-47.48 143.01-48.12ZM135.27-22.72L135.27-22.72 135.27-22.6Q135.33-22.34 135.52-22.34L135.52-22.34 142.63-23.36 143.14-23.36Q143.33-23.36 143.65-23.87L143.65-23.87Q143.52-25.77 143.27-26.53L143.27-26.53Q143.39-26.79 143.39-26.91L143.39-26.91Q143.14-27.74 143.14-27.93L143.14-27.93Q143.14-28.06 143.27-28.31L143.27-28.31Q142.95-30.98 142.76-31.87L142.76-31.87 142.89-32.63Q142.89-33.52 142.63-33.52L142.63-33.52 142.76-34.15 142.76-34.66Q142.5-34.98 142.5-35.17L142.5-35.17Q141.17-33.64 140.35-31.74L140.35-31.74Q139.01-30.15 135.65-23.36L135.65-23.36Q135.65-23.17 135.27-22.72L135.27-22.72ZM130.19-12.44L130.19-12.44Q138.13-11.55 142.25-9.52L142.25-9.52Q143.96-8.63 146.82-6.22L146.82-6.22 146.95-6.22 146.95-6.35Q145.68-10.22 144.28-18.79L144.28-18.79 143.9-18.79Q135.21-16.88 131.71-15.62L131.71-15.62Q130.25-13.08 130.19-12.44L130.19-12.44ZM124.1-13.2L123.72-13.2 123.72-13.08 124.1-13.08 124.1-13.2Z" transform="translate(-1.590000033378601, 48.119998931884766)"/></g> <g fill="#444" transform="translate(0,59.439998626708984)"><g transform="scale(1.00861)"><path d="M10.25-23.7L10.25-23.7Q10.32-23.7 10.32-23.63L10.32-23.63 11-23.7 11.27-23.7Q14.43-23.7 17.93-19.49L17.93-19.49Q18.57-18.3 18.74-17.38L18.74-17.38 18.81-17.38Q18.81-15.75 17.45-15.75L17.45-15.75Q15.48-16.19 15.48-17.52L15.48-17.52Q15.48-18.1 15.41-18.13L15.41-18.13Q15.48-18.27 15.48-18.4L15.48-18.4Q15.48-20.17 14.87-20.51L14.87-20.51Q13.95-20.71 12.97-20.71L12.97-20.71Q11.82-20.71 9.85-19.83L9.85-19.83Q9.85-19.73 8.76-19.15L8.76-19.15Q7.74-18.47 7.13-17.59L7.13-17.59Q6.38-16.98 6.38-15.75L6.38-15.75 6.38-15.62Q6.38-14.87 7.67-14.26L7.67-14.26Q10.25-12.53 12.83-10.05L12.83-10.05Q15.18-7.4 15.55-5.3L15.55-5.3Q15.62-5.19 15.62-5.02L15.62-5.02 15.62-4.96Q15.62-4.82 15.55-4.69L15.55-4.69Q15.62-4.58 15.62-4.41L15.62-4.41Q15.62-2.68 13.85-1.36L13.85-1.36Q11.44 0 7.54 0L7.54 0Q3.09 0 0.54-3.4L0.54-3.4Q0-4.21 0-5.02L0-5.02 0-5.16Q0-7.57 4.14-10.46L4.14-10.46Q6.15-11.71 7.54-11.95L7.54-11.95Q7.54-12.05 7.94-12.09L7.94-12.09Q8.22-11.98 8.22-11.88L8.22-11.88 8.22-11.75Q8.05-11.75 7.33-11L7.33-11Q4.07-8.86 2.72-7.61L2.72-7.61Q1.09-5.94 1.09-4.55L1.09-4.55Q1.09-2.04 4.62-1.43L4.62-1.43Q4.79-1.43 5.36-1.29L5.36-1.29Q5.43-1.29 5.57-1.36L5.57-1.36Q5.94-1.29 6.18-1.29L6.18-1.29Q8.35-1.29 10.53-3.06L10.53-3.06Q12.15-4.65 12.56-6.25L12.56-6.25Q12.56-6.72 12.63-6.79L12.63-6.79Q12.63-9.81 7.74-12.7L7.74-12.7Q3.26-15.86 3.26-18.2L3.26-18.2 3.26-18.27Q3.26-19.05 4.41-20.64L4.41-20.64Q5.87-22.1 6.65-22.34L6.65-22.34Q7.71-23.05 10.25-23.7L10.25-23.7ZM30.66-23.63L30.66-23.63 30.66-23.56Q30.73-23.56 30.73-23.63L30.73-23.63Q32.8-23.63 35.48-21.8L35.48-21.8Q37.08-20.3 37.38-19.45L37.38-19.45Q37.28-18.61 37.01-18.61L37.01-18.61 36.8-18.61Q36.36-18.61 35.55-20.68L35.55-20.68Q35.04-21.25 33.07-21.59L33.07-21.59 32.59-21.53Q32.42-21.53 32.29-21.59L32.29-21.59Q29.84-21.59 27.37-19.32L27.37-19.32Q27.37-19.25 26.38-18.33L26.38-18.33Q26.38-18.23 25.33-16.77L25.33-16.77Q24.28-15.24 23.77-13.68L23.77-13.68Q23.6-13.55 23.05-11.85L23.05-11.85 23.12-11.71Q22.54-10.49 22.54-7.84L22.54-7.84 22.65-7.67Q22.65-7.61 22.54-7.61L22.54-7.61Q22.54-5.5 24.11-3.16L24.11-3.16Q25.6-2.31 26.79-2.24L26.79-2.24Q29.78-2.24 34.33-4.58L34.33-4.58Q34.36-4.72 35.04-4.86L35.04-4.86Q35.41-4.75 35.41-4.38L35.41-4.38Q31.95 0 28.76 0L28.76 0Q24.68 0 20.95-5.09L20.95-5.09Q19.39-7.4 19.39-10.93L19.39-10.93 19.45-11.44 19.39-11.58Q19.39-12.73 20.57-16.23L20.57-16.23Q21.46-18.74 24.55-21.39L24.55-21.39Q24.75-21.66 26.45-22.51L26.45-22.51Q28.86-23.6 30.66-23.63L30.66-23.63ZM45.39-24.68L45.39-24.68Q46.41-24.68 47.77-22.82L47.77-22.82Q47.77-22.31 49.06-21.93L49.06-21.93Q53.71-19.11 53.71-15.72L53.71-15.72 53.64-15.58 53.71-15.14Q53.2-12.8 51.88-11.68L51.88-11.68Q51.88-11.51 49.81-10.08L49.81-10.08 48.35-9.57 48.35-9.51Q49.13-9 50.72-5.09L50.72-5.09Q51.71-3.6 53.64-2.78L53.64-2.78Q54.93-1.83 57.82-0.61L57.82-0.61Q58.02-0.44 58.02-0.41L58.02-0.41 58.02-0.34Q57-0.14 56.36-0.14L56.36-0.14 56.22-0.14Q53.2-0.14 48.65-5.09L48.65-5.09Q46.75-7.64 46.75-9L46.75-9Q45.83-8.79 44.61-8.79L44.61-8.79 44.37-8.79Q44.37-8.45 43.29-5.6L43.29-5.6 42.27-2Q42.37-1.87 42.37-1.77L42.37-1.77Q42.1-1.77 41.86-0.27L41.86-0.27Q41.56 0.17 41.49 0.17L41.49 0.17 41.35 0.17Q39.62-0.34 38.3-2.27L38.3-2.27Q38.09-2.75 38.09-2.95L38.09-2.95 38.3-4.01 38.23-4.18Q38.54-4.45 39.11-7.27L39.11-7.27Q39.11-7.84 38.3-14.87L38.3-14.87Q38.23-15.01 38.23-16.09L38.23-16.09Q38.23-16.98 38.74-18.54L38.74-18.54Q39.32-19.62 39.89-20.2L39.89-20.2Q41.18-21.7 44.17-22.58L44.17-22.58Q45.02-24.58 45.39-24.68L45.39-24.68ZM47.84-20.91L47.84-20.91Q46.34-14.94 45.97-14.06L45.97-14.06 46.04-13.92 44.82-10.02 44.95-9.95 45.02-9.95Q46.51-9.95 48.58-11.61L48.58-11.61Q51.47-14.7 51.47-17.11L51.47-17.11 51.47-17.69Q51.47-19.11 50.21-20.2L50.21-20.2Q48.72-20.91 47.84-20.91L47.84-20.91ZM39.18-15.96L39.18-15.96 39.25-15.79Q39.11-15.24 39.11-15.14L39.11-15.14Q39.11-13.21 39.89-9.57L39.89-9.57 39.96-9.57Q40.2-10.46 40.33-10.73L40.33-10.73 40.27-10.9Q41.05-12.56 41.49-13.99L41.49-13.99Q42.78-17.62 42.78-17.76L42.78-17.76 42.71-17.89Q43.15-18.64 43.59-20.34L43.59-20.34 43.59-20.4Q43.15-20.4 42.27-19.93L42.27-19.93Q40.27-18.98 39.55-17.18L39.55-17.18 39.18-15.96ZM73.06-23.6L73.06-23.6Q73.78-23.46 75.37-21.56L75.37-21.56Q75.88-20.71 75.88-20.2L75.88-20.2Q75.64-20.03 73.84-19.45L73.84-19.45Q73.78-19.45 73.78-19.52L73.78-19.52Q70.79-18.88 68.68-17.45L68.68-17.45 66.31-16.47 66.41-15.18Q66.31-14.09 66-12.63L66-12.63 66.04-12.63 71.77-13.44 72.15-13.38 72.69-13.44 72.69-13.38 72.79-13.44 74.52-13.44Q76.19-13.44 76.32-13.07L76.32-13.07 76.32-13Q76.32-12.7 73.37-11.58L73.37-11.58Q71.84-11.03 70.21-10.66L70.21-10.66Q70.11-10.59 64.88-8.93L64.88-8.93Q63.83-5.4 63.83-4.45L63.83-4.45 64.2-4.21Q64.47-4.35 65.02-4.35L65.02-4.35 65.05-4.35Q65.12-4.35 65.12-4.28L65.12-4.28 65.26-4.35 65.87-4.35Q66-4.35 66.1-4.45L66.1-4.45Q66.17-4.45 66.17-4.35L66.17-4.35 66.48-4.45 67.22-4.45 67.63-4.52 67.63-4.45Q67.77-4.52 67.84-4.52L67.84-4.52Q69.06-4.52 73.44-5.19L73.44-5.19 73.44-5.13Q74.86-5.33 75.75-5.7L75.75-5.7Q75.92-5.7 76.26-5.77L76.26-5.77Q76.76-5.77 77.78-4.21L77.78-4.21 77.78-3.97Q77.78-3.56 76.19-3.29L76.19-3.29Q75.41-2.85 72.08-2.24L72.08-2.24Q71.71-2.14 71.5-2.04L71.5-2.04 71.26-2.11Q67.94-1.36 67.29-1.12L67.29-1.12Q67.22-1.12 67.22-1.19L67.22-1.19Q66.61-0.98 61.93 0L61.93 0Q60.4 0 58.57-3.02L58.57-3.02 58.5-3.4 58.5-3.46Q58.5-3.77 59.89-3.97L59.89-3.97Q60.67-3.97 60.88-5.77L60.88-5.77Q60.88-6.15 61.32-7.98L61.32-7.98 60.88-7.88Q59.48-7.88 58.19-10.15L58.19-10.15 58.13-10.53Q58.13-10.73 61.83-11.58L61.83-11.58Q61.83-11.71 62.54-11.88L62.54-11.88 63.29-14.19Q63.56-14.77 64.03-16.23L64.03-16.23Q64.47-17.21 64.58-17.21L64.58-17.21 64.58-17.28Q62.23-18.78 61.86-20.37L61.86-20.37 61.86-20.51Q61.86-20.68 63.83-21.12L63.83-21.12Q66.92-22.31 67.29-22.31L67.29-22.31Q71.91-23.6 73.06-23.6L73.06-23.6ZM67.63-18.27L67.63-18.27Q67.6-18.27 67.6-18.33L67.6-18.33Q66.65-17.93 66.17-17.65L66.17-17.65 66.04-17.72Q65.76-17.52 65.42-17.52L65.42-17.52 65.42-17.45Q65.87-17.21 66-17.21L66-17.21 66.1-17.21Q68.51-17.72 70.04-18.95L70.04-18.95 70.04-19.01 69.97-19.01Q68.48-18.64 67.63-18.27L67.63-18.27ZM92.52-23.6L92.52-23.6Q93.23-23.46 94.83-21.56L94.83-21.56Q95.34-20.71 95.34-20.2L95.34-20.2Q95.1-20.03 93.3-19.45L93.3-19.45Q93.23-19.45 93.23-19.52L93.23-19.52Q90.24-18.88 88.14-17.45L88.14-17.45 85.76-16.47 85.86-15.18Q85.76-14.09 85.46-12.63L85.46-12.63 85.49-12.63 91.23-13.44 91.6-13.38 92.14-13.44 92.14-13.38 92.25-13.44 93.98-13.44Q95.64-13.44 95.78-13.07L95.78-13.07 95.78-13Q95.78-12.7 92.82-11.58L92.82-11.58Q91.3-11.03 89.67-10.66L89.67-10.66Q89.56-10.59 84.34-8.93L84.34-8.93Q83.28-5.4 83.28-4.45L83.28-4.45 83.66-4.21Q83.93-4.35 84.47-4.35L84.47-4.35 84.51-4.35Q84.57-4.35 84.57-4.28L84.57-4.28 84.71-4.35 85.32-4.35Q85.46-4.35 85.56-4.45L85.56-4.45Q85.63-4.45 85.63-4.35L85.63-4.35 85.93-4.45 86.68-4.45 87.09-4.52 87.09-4.45Q87.22-4.52 87.29-4.52L87.29-4.52Q88.51-4.52 92.89-5.19L92.89-5.19 92.89-5.13Q94.32-5.33 95.2-5.7L95.2-5.7Q95.37-5.7 95.71-5.77L95.71-5.77Q96.22-5.77 97.24-4.21L97.24-4.21 97.24-3.97Q97.24-3.56 95.64-3.29L95.64-3.29Q94.86-2.85 91.53-2.24L91.53-2.24Q91.16-2.14 90.96-2.04L90.96-2.04 90.72-2.11Q87.39-1.36 86.75-1.12L86.75-1.12Q86.68-1.12 86.68-1.19L86.68-1.19Q86.07-0.98 81.38 0L81.38 0Q79.85 0 78.02-3.02L78.02-3.02 77.95-3.4 77.95-3.46Q77.95-3.77 79.34-3.97L79.34-3.97Q80.13-3.97 80.33-5.77L80.33-5.77Q80.33-6.15 80.77-7.98L80.77-7.98 80.33-7.88Q78.94-7.88 77.65-10.15L77.65-10.15 77.58-10.53Q77.58-10.73 81.28-11.58L81.28-11.58Q81.28-11.71 81.99-11.88L81.99-11.88 82.74-14.19Q83.01-14.77 83.49-16.23L83.49-16.23Q83.93-17.21 84.03-17.21L84.03-17.21 84.03-17.28Q81.69-18.78 81.31-20.37L81.31-20.37 81.31-20.51Q81.31-20.68 83.28-21.12L83.28-21.12Q86.37-22.31 86.75-22.31L86.75-22.31Q91.36-23.6 92.52-23.6L92.52-23.6ZM87.09-18.27L87.09-18.27Q87.05-18.27 87.05-18.33L87.05-18.33Q86.1-17.93 85.63-17.65L85.63-17.65 85.49-17.72Q85.22-17.52 84.88-17.52L84.88-17.52 84.88-17.45Q85.32-17.21 85.46-17.21L85.46-17.21 85.56-17.21Q87.97-17.72 89.5-18.95L89.5-18.95 89.5-19.01 89.43-19.01Q87.93-18.64 87.09-18.27L87.09-18.27ZM106.54-24.48L106.54-24.48 106.64-24.48Q107.69-24.48 108.68-22.51L108.68-22.51Q108.44-20.24 108.2-19.93L108.2-19.93 108.44-17.45Q108.44-17.35 108.37-17.21L108.37-17.21Q108.44-14.57 108.54-13.99L108.54-13.99 108.44-13.82 108.61-11.82 108.54-11.65 108.68-10.93 108.61-10.59Q108.61-10.39 108.78-9.1L108.78-9.1 108.68-9.1 108.78-8.93 108.78-8.86Q108.78-8.76 108.68-8.76L108.68-8.76Q108.85-8.45 108.95-6.96L108.95-6.96 108.85-6.96 109.12-5.36 109.02-5.19Q109.19-4.72 109.19-4.14L109.19-4.14 109.29-4.14Q109.94-4.86 110.75-6.79L110.75-6.79Q111.6-12.26 113.67-16.64L113.67-16.64Q113.81-17.55 115.4-20.34L115.4-20.34Q116.32-21.86 117.13-22.58L117.13-22.58Q118.02-22.58 119.44-20.74L119.44-20.74 119.44-20.51Q118.8-19.56 117.03-15.45L117.03-15.45Q116.83-15.35 116.62-14.4L116.62-14.4Q116.52-14.4 115.88-12.56L115.88-12.56Q115.67-12.15 114.89-10.25L114.89-10.25 114.99-10.08 112.35-3.16 111.33-0.07 111.19 0Q110.85 0 110.58-0.92L110.58-0.92Q110.58-0.98 110.68-0.98L110.68-0.98 110.58-1.49Q110.58-2.21 110.68-4.62L110.68-4.62 110.58-4.62Q109.6-2.82 109.6-1.73L109.6-1.73 109.36-1.56Q108.27-1.56 106.64-4.21L106.64-4.21Q105.9-6.25 105.56-12.26L105.56-12.26Q105.62-12.39 105.62-12.49L105.62-12.49 105.45-12.56 105.32-12.56Q105.32-12.32 103.25-7.27L103.25-7.27Q102.77-5.87 101.41-2.72L101.41-2.72Q101.28-1.7 99.85-0.17L99.85-0.17Q98.56-0.17 97.1-2.41L97.1-2.41Q97.03-2.55 97.03-2.72L97.03-2.72Q97.03-3.9 97.54-5.7L97.54-5.7Q100.43-12.43 100.6-13.24L100.6-13.24Q101.35-14.74 101.41-15.38L101.41-15.38Q101.62-15.65 102.74-18.54L102.74-18.54Q104.71-23.29 105.73-24.07L105.73-24.07Q106.2-24.48 106.54-24.48L106.54-24.48ZM132.51-23.6L132.51-23.6Q133.23-23.46 134.82-21.56L134.82-21.56Q135.33-20.71 135.33-20.2L135.33-20.2Q135.09-20.03 133.29-19.45L133.29-19.45Q133.23-19.45 133.23-19.52L133.23-19.52Q130.24-18.88 128.13-17.45L128.13-17.45 125.76-16.47 125.86-15.18Q125.76-14.09 125.45-12.63L125.45-12.63 125.49-12.63 131.22-13.44 131.6-13.38 132.14-13.44 132.14-13.38 132.24-13.44 133.97-13.44Q135.64-13.44 135.77-13.07L135.77-13.07 135.77-13Q135.77-12.7 132.82-11.58L132.82-11.58Q131.29-11.03 129.66-10.66L129.66-10.66Q129.56-10.59 124.33-8.93L124.33-8.93Q123.28-5.4 123.28-4.45L123.28-4.45 123.65-4.21Q123.92-4.35 124.47-4.35L124.47-4.35 124.5-4.35Q124.57-4.35 124.57-4.28L124.57-4.28 124.7-4.35 125.32-4.35Q125.45-4.35 125.55-4.45L125.55-4.45Q125.62-4.45 125.62-4.35L125.62-4.35 125.93-4.45 126.67-4.45 127.08-4.52 127.08-4.45Q127.22-4.52 127.28-4.52L127.28-4.52Q128.51-4.52 132.89-5.19L132.89-5.19 132.89-5.13Q134.31-5.33 135.2-5.7L135.2-5.7Q135.37-5.7 135.7-5.77L135.7-5.77Q136.21-5.77 137.23-4.21L137.23-4.21 137.23-3.97Q137.23-3.56 135.64-3.29L135.64-3.29Q134.86-2.85 131.53-2.24L131.53-2.24Q131.16-2.14 130.95-2.04L130.95-2.04 130.71-2.11Q127.39-1.36 126.74-1.12L126.74-1.12Q126.67-1.12 126.67-1.19L126.67-1.19Q126.06-0.98 121.38 0L121.38 0Q119.85 0 118.02-3.02L118.02-3.02 117.95-3.4 117.95-3.46Q117.95-3.77 119.34-3.97L119.34-3.97Q120.12-3.97 120.32-5.77L120.32-5.77Q120.32-6.15 120.77-7.98L120.77-7.98 120.32-7.88Q118.93-7.88 117.64-10.15L117.64-10.15 117.57-10.53Q117.57-10.73 121.28-11.58L121.28-11.58Q121.28-11.71 121.99-11.88L121.99-11.88 122.74-14.19Q123.01-14.77 123.48-16.23L123.48-16.23Q123.92-17.21 124.03-17.21L124.03-17.21 124.03-17.28Q121.68-18.78 121.31-20.37L121.31-20.37 121.31-20.51Q121.31-20.68 123.28-21.12L123.28-21.12Q126.37-22.31 126.74-22.31L126.74-22.31Q131.36-23.6 132.51-23.6L132.51-23.6ZM127.08-18.27L127.08-18.27Q127.05-18.27 127.05-18.33L127.05-18.33Q126.1-17.93 125.62-17.65L125.62-17.65 125.49-17.72Q125.21-17.52 124.87-17.52L124.87-17.52 124.87-17.45Q125.32-17.21 125.45-17.21L125.45-17.21 125.55-17.21Q127.96-17.72 129.49-18.95L129.49-18.95 129.49-19.01 129.42-19.01Q127.93-18.64 127.08-18.27L127.08-18.27ZM146.47-24.68L146.47-24.68Q147.49-24.68 148.84-22.82L148.84-22.82Q148.84-22.31 150.13-21.93L150.13-21.93Q154.79-19.11 154.79-15.72L154.79-15.72 154.72-15.58 154.79-15.14Q154.28-12.8 152.95-11.68L152.95-11.68Q152.95-11.51 150.88-10.08L150.88-10.08 149.42-9.57 149.42-9.51Q150.2-9 151.8-5.09L151.8-5.09Q152.78-3.6 154.72-2.78L154.72-2.78Q156.01-1.83 158.89-0.61L158.89-0.61Q159.1-0.44 159.1-0.41L159.1-0.41 159.1-0.34Q158.08-0.14 157.43-0.14L157.43-0.14 157.3-0.14Q154.28-0.14 149.73-5.09L149.73-5.09Q147.83-7.64 147.83-9L147.83-9Q146.91-8.79 145.69-8.79L145.69-8.79 145.45-8.79Q145.45-8.45 144.36-5.6L144.36-5.6 143.34-2Q143.45-1.87 143.45-1.77L143.45-1.77Q143.17-1.77 142.94-0.27L142.94-0.27Q142.63 0.17 142.56 0.17L142.56 0.17 142.43 0.17Q140.7-0.34 139.37-2.27L139.37-2.27Q139.17-2.75 139.17-2.95L139.17-2.95 139.37-4.01 139.3-4.18Q139.61-4.45 140.19-7.27L140.19-7.27Q140.19-7.84 139.37-14.87L139.37-14.87Q139.3-15.01 139.3-16.09L139.3-16.09Q139.3-16.98 139.81-18.54L139.81-18.54Q140.39-19.62 140.97-20.2L140.97-20.2Q142.26-21.7 145.25-22.58L145.25-22.58Q146.09-24.58 146.47-24.68L146.47-24.68ZM148.91-20.91L148.91-20.91Q147.42-14.94 147.04-14.06L147.04-14.06 147.11-13.92 145.89-10.02 146.03-9.95 146.09-9.95Q147.59-9.95 149.66-11.61L149.66-11.61Q152.54-14.7 152.54-17.11L152.54-17.11 152.54-17.69Q152.54-19.11 151.29-20.2L151.29-20.2Q149.79-20.91 148.91-20.91L148.91-20.91ZM140.25-15.96L140.25-15.96 140.32-15.79Q140.19-15.24 140.19-15.14L140.19-15.14Q140.19-13.21 140.97-9.57L140.97-9.57 141.04-9.57Q141.27-10.46 141.41-10.73L141.41-10.73 141.34-10.9Q142.12-12.56 142.56-13.99L142.56-13.99Q143.85-17.62 143.85-17.76L143.85-17.76 143.79-17.89Q144.23-18.64 144.67-20.34L144.67-20.34 144.67-20.4Q144.23-20.4 143.34-19.93L143.34-19.93Q141.34-18.98 140.63-17.18L140.63-17.18 140.25-15.96Z" transform="translate(0, 24.68000030517578)"/></g></g></g></g> </g></g><defs v-gra="od"/>
  </svg>
</svg>


